dummy_motion.mot																				
nRows=31																				
nColumns=21																				
name dummy_motion.mot																				
datacolumns 21																				
datarows 31																				
range 37.51 37.81																				
endheader																				
time	pelvis_tilt	pelvis_tx	pelvis_ty	hip_flexion_r	hip_adduction_r	hip_rotation_r	knee_angle_r	ankle_angle_r	hip_flexion_l	hip_adduction_l	hip_rotation_l	knee_angle_l	ankle_angle_l	lumbar_extension	lumbar_bending	lumbar_rotation	subtalar_angle_r	subtalar_angle_l	mtp_angle_r	mtp_angle_l
37.51	0	0	0	-18.57873832	8.952760601	-25.88218802	-53.83689394	6.509704336	-18.57873832	8.952760601	-25.88218802	-53.83689394	6.509704336	53.00961093	13.42914093	-38.82328211	-31.33181687	-31.33181687	43.49947564	43.49947564
37.52	0	0	0	-20.86009633	-19.14371222	6.643033055	-12.00315686	-11.49555137	-20.86009633	-19.14371222	6.643033055	-12.00315686	-11.49555137	-79.06181689	-28.71556838	9.964549603	-10.74021531	-10.74021531	40.48100284	40.48100284
37.53	0	0	0	48.04376819	-18.114254	29.45882378	-73.72038396	-48.39803909	48.04376819	-18.114254	29.45882378	-73.72038396	-48.39803909	61.68289046	-27.17138106	44.18823575	28.89174613	28.89174613	47.59021607	47.59021607
37.54	0	0	0	-39.12674602	-20.66119961	-3.801669523	-58.65234827	11.84150836	-39.12674602	-20.66119961	-3.801669523	-58.65234827	11.84150836	77.5870796	-30.99179948	-5.702504296	-29.57720586	-29.57720586	43.51807177	43.51807177
37.55	0	0	0	-47.41993025	29.15147468	-20.48491011	1.814838756	22.33103925	-47.41993025	29.15147468	-20.48491011	1.814838756	22.33103925	46.66665668	43.72721212	-30.72736522	-15.30222467	-15.30222467	-1.560310301	-1.560310301
37.56	0	0	0	64.51129468	-14.96610934	23.21002808	-13.40220333	6.320973801	64.51129468	-14.96610934	23.21002808	-13.40220333	6.320973801	-68.69599271	-22.44916406	34.81504218	41.98247882	41.98247882	16.90321183	16.90321183
37.57	0	0	0	9.729325467	-7.642516729	-20.17798185	-68.89214665	-7.031049544	9.729325467	-7.642516729	-20.17798185	-68.89214665	-7.031049544	-67.32643902	-11.46377512	-30.26697284	27.56633369	27.56633369	-8.045375479	-8.045375479
37.58	0	0	0	-42.47040651	-1.240834538	-29.89584363	4.978446656	7.740283088	-42.47040651	-1.240834538	-29.89584363	4.978446656	7.740283088	-35.99971186	-1.861251811	-44.84376554	-25.0030863	-25.0030863	-9.9086862	-9.9086862
37.59	0	0	0	29.1072004	-11.73491511	21.86156249	-83.94482374	25.66566178	29.1072004	-11.73491511	21.86156249	-83.94482374	25.66566178	-22.19616663	-17.6023727	32.7923438	44.97958104	44.97958104	-9.510141701	-9.510141701
37.6	0	0	0	-37.21479045	12.68553773	28.44215985	-49.57910378	11.40231961	-37.21479045	12.68553773	28.44215985	-49.57910378	11.40231961	28.11915843	19.02830664	42.66323987	-39.26351723	-39.26351723	1.744896767	1.744896767
37.61	0	0	0	-58.02743963	-1.747354549	13.29448056	-51.58787555	9.072389342	-58.02743963	-1.747354549	13.29448056	-51.58787555	9.072389342	62.40307262	-2.621031829	19.94172089	-6.706519372	-6.706519372	0.530500991	0.530500991
37.62	0	0	0	44.94040338	7.602115339	13.23930012	-51.97217603	12.90863425	44.94040338	7.602115339	13.23930012	-51.97217603	12.90863425	50.13154151	11.40317303	19.85895023	-8.609566312	-8.609566312	26.08458007	26.08458007
37.63	0	0	0	14.95303012	-17.50324722	2.996481779	-79.36734883	1.509743613	14.95303012	-17.50324722	2.996481779	-79.36734883	1.509743613	35.78941355	-26.25487088	4.494722678	-8.97364045	-8.97364045	19.32177573	19.32177573
37.64	0	0	0	49.56163729	-6.503502474	6.121169211	-49.69047654	9.715951547	49.56163729	-6.503502474	6.121169211	-49.69047654	9.715951547	-3.828798045	-9.755253731	9.181753835	-34.92696205	-34.92696205	31.56688295	31.56688295
37.65	0	0	0	-15.56136955	-19.73559271	-23.63644255	-31.71314115	25.2589336	-15.56136955	-19.73559271	-23.63644255	-31.71314115	25.2589336	-19.40729627	-29.60338913	-35.4546639	-6.812030409	-6.812030409	9.388663876	9.388663876
37.66	0	0	0	65.41489227	4.832010801	11.31816003	3.865822147	5.179430163	65.41489227	4.832010801	11.31816003	3.865822147	5.179430163	8.853768827	7.248016217	16.97724009	10.21912944	10.21912944	31.4978945	31.4978945
37.67	0	0	0	47.99870489	-13.39414841	19.5331805	-69.10942601	-18.16322907	47.99870489	-13.39414841	19.5331805	-69.10942601	-18.16322907	17.10505024	-20.09122266	29.29977081	43.92551572	43.92551572	30.95981821	30.95981821
37.68	0	0	0	-6.177129342	-24.47733247	17.28032091	-56.3622976	4.009074801	-6.177129342	-24.47733247	17.28032091	-56.3622976	4.009074801	-79.26823611	-36.71599877	25.92048142	-25.2089299	-25.2089299	-1.488676918	-1.488676918
37.69	0	0	0	-2.057422705	-14.36182507	-23.98398069	-64.70702148	17.38563958	-2.057422705	-14.36182507	-23.98398069	-64.70702148	17.38563958	75.45786501	-21.54273766	-35.97597111	-13.13270299	-13.13270299	-4.498446734	-4.498446734
37.7	0	0	0	-9.528313592	20.23191577	24.9301377	-62.30768677	2.715384149	-9.528313592	20.23191577	24.9301377	-62.30768677	2.715384149	-3.135445364	30.34787372	37.39520662	-21.03823087	-21.03823087	-7.755362668	-7.755362668
37.71	0	0	0	-40.03712208	15.17765268	-8.281423616	-72.10299356	-20.38752562	-40.03712208	15.17765268	-8.281423616	-72.10299356	-20.38752562	-76.75497876	22.76647907	-12.42213545	-18.76517694	-18.76517694	1.771788326	1.771788326
37.72	0	0	0	-17.71040549	-8.128309852	-10.51985755	-87.82833576	-20.75110697	-17.71040549	-8.128309852	-10.51985755	-87.82833576	-20.75110697	-28.2950592	-12.1924648	-15.77978636	-28.04494126	-28.04494126	26.69198299	26.69198299
37.73	0	0	0	73.48032258	5.978616085	27.39907076	-47.30660271	-45.0189234	73.48032258	5.978616085	27.39907076	-47.30660271	-45.0189234	7.328846699	8.967924145	41.09860623	-42.94263387	-42.94263387	48.89580523	48.89580523
37.74	0	0	0	-31.48164822	-9.436050508	-24.55087343	-66.85418163	-22.38509772	-31.48164822	-9.436050508	-24.55087343	-66.85418163	-22.38509772	18.91584832	-14.15407579	-36.82631022	-4.553623625	-4.553623625	11.44884075	11.44884075
37.75	0	0	0	-50.92356908	-3.811214428	15.22944571	-7.47097825	-17.42414425	-50.92356908	-3.811214428	15.22944571	-7.47097825	-17.42414425	49.82121483	-5.716821653	22.84416861	-23.07238259	-23.07238259	3.381238172	3.381238172
37.76	0	0	0	48.48833204	-14.50675504	-7.457671679	-39.78197709	26.43249214	48.48833204	-14.50675504	-7.457671679	-39.78197709	26.43249214	29.06677897	-21.76013261	-11.18650754	33.18538903	33.18538903	-5.441641477	-5.441641477
37.77	0	0	0	28.39386307	-4.075607367	-24.6773532	-3.157159027	-2.311842976	28.39386307	-4.075607367	-24.6773532	-3.157159027	-2.311842976	28.02842965	-6.113411062	-37.01602987	2.57496907	2.57496907	56.2207015	56.2207015
37.78	0	0	0	52.15685422	-27.86496139	28.76883987	2.523366821	-38.00482741	52.15685422	-27.86496139	28.76883987	2.523366821	-38.00482741	14.00760923	-41.79744217	43.15325989	37.27216513	37.27216513	7.133635172	7.133635172
37.79	0	0	0	-0.903645487	-25.27628875	10.63054514	-34.38453393	4.94098123	-0.903645487	-25.27628875	10.63054514	-34.38453393	4.94098123	-38.25975073	-37.9144332	15.94581774	42.65371594	42.65371594	33.77829278	33.77829278
37.8	0	0	0	13.34766266	-9.632615014	19.7305836	-78.69733865	-9.716471835	13.34766266	-9.632615014	19.7305836	-78.69733865	-9.716471835	49.91756438	-14.44892255	29.59587546	7.68833628	7.68833628	4.467145173	4.467145173
37.81	0	0	0	-40.17173594	-17.49368736	27.75793874	-1.979404052	-20.20505886	-40.17173594	-17.49368736	27.75793874	-1.979404052	-20.20505886	3.895941171	-26.2405311	41.6369082	-34.29221556	-34.29221556	6.922017279	6.922017279
